<svg width="600" height="200" viewBox="0 0 600 200" fill="none" xmlns="http://www.w3.org/2000/svg">
<path d="M142.9 93.7C142.4 93.6 142.2 93.2 142.7 92.8L146.3 89.5C146.8 89.1 146.6 88.8 146.1 88.9L141 89C140.4 89 140.3 88.7 140.7 88.3L144 85.5C144.4 85.1 144.3 84.8 143.7 84.7L139.2 84.4C138.6 84.4 138.5 84 138.9 83.7L143.1 80.4C143.6 80 143.5 79.7 142.9 79.7L136 79.9C135.5 79.9 135.4 79.6 135.8 79.3L139.9 76C140.4 75.6 140.3 75.5 139.7 75.7L59.2 101.3C58.6 101.5 58.6 101.6 59.2 101.7L64.3 102.1C64.9 102.1 65 102.4 64.5 102.7L58.5 106.3C58 106.6 58.1 106.8 58.7 106.9H65.6C66.1 106.9 66.3 107.3 65.8 107.7L60.9 112.3C60.5 112.7 60.6 112.9 61.2 112.8L66.4 112.2C67 112.1 67.1 112.3 66.7 112.7L63.4 115.8C63 116.2 63.1 116.5 63.7 116.5L68.1 116.3C68.7 116.3 68.8 116.6 68.4 117L65.6 119.8C65.2 120.2 65.3 120.4 65.9 120.2L148.7 94.9C149.3 94.7 149.3 94.5 148.7 94.4L142.9 93.7ZM60.5 43.2L65.9 45.2C66.4 45.4 66.4 45.7 65.9 45.9L60.7 47.9C60.2 48.1 60.2 48.4 60.8 48.4L110.8 54.7C111.4 54.8 111.5 54.6 111 54.3L107.4 52.1C106.9 51.8 107 51.4 107.6 51.4L112.5 50.6C113.1 50.5 113.2 50.1 112.7 49.8L108.5 47.2C108 46.9 108.1 46.6 108.7 46.5L114.3 45.5C114.9 45.4 115 45.1 114.5 44.8L109.9 41.8C109.4 41.4 109.5 41.1 110.1 41L115.2 40.3C115.8 40.2 115.8 39.9 115.3 39.6L111.1 37.5C110.6 37.2 110.6 36.9 111.2 36.8L117.7 35.5C118.2 35.4 118.2 35.2 117.6 35.1L66.3 28.8C65.7 28.7 65.6 28.9 66 29.3L69.3 32.2C69.8 32.6 69.7 32.9 69.1 32.9L62.1 33.3C61.6 33.4 61.5 33.6 62 33.8L67.3 36.3C67.8 36.6 67.8 36.9 67.2 37L62.3 37.9C61.7 38 61.7 38.3 62.2 38.6L66 40.9C66.5 41.2 66.4 41.5 65.8 41.6L60.5 42.7C60 42.8 60 43.1 60.5 43.2ZM59.9 72L63.9 73.8C64.4 74 64.4 74.3 63.8 74.5L59.9 75.9C59.4 76 59.4 76.3 60 76.3L107 82.5C107.6 82.5 107.7 82.3 107.2 82L104.1 79.9C103.6 79.6 103.7 79.3 104.3 79.2L108.6 78.9C109.2 78.9 109.2 78.6 108.7 78.3L104.8 75.7C104.3 75.4 104.4 75.1 104.9 75L109.2 74.5C109.8 74.4 109.9 74.1 109.4 73.7L105.4 71.1C104.9 70.8 105 70.5 105.6 70.5L110.6 70.3C111.1 70.3 111.2 70 110.7 69.7L106.8 67.5C106.3 67.2 106.3 66.7 106.8 66.5L110 64.8C110.5 64.5 110.4 64.2 109.9 64.1L62.6 56.8C62 56.7 61.9 56.9 62.4 57.3L65.4 59.7C65.8 60 65.7 60.4 65.1 60.5L61.8 61.1C61.2 61.2 61.1 61.6 61.6 61.9L64.2 63.9C64.7 64.3 64.6 64.6 64 64.7L60.4 65.4C59.8 65.5 59.7 65.9 60.2 66.3L63.6 68.8C64.1 69.1 64.1 69.6 63.5 69.8L59.9 71.2C59.3 71.5 59.3 71.8 59.9 72ZM117.2 49.4C116.7 49.1 116.4 49.3 116.6 49.9L123 66.7C123.2 67.3 123.4 67.3 123.4 66.7L123.6 64.9C123.6 64.3 124 64.2 124.4 64.6L125.9 66C126.3 66.5 126.6 66.3 126.6 65.7L126.5 63.4C126.5 62.8 126.8 62.6 127.2 63.1L128.5 64.3C128.9 64.7 129.3 64.6 129.4 64L129.7 62.2C129.7 61.6 130.1 61.5 130.5 62L131.8 63.6C132.2 64.1 132.5 64 132.5 63.4L132.6 61.4C132.7 60.9 133 60.7 133.5 61.1L135.2 62.7C135.7 63.1 135.8 63 135.6 62.5L129.2 45.1C129 44.6 128.7 44.6 128.5 45.1L128.1 46.6C127.9 47.1 127.5 47.2 127.1 46.8L125.9 45.5C125.5 45.1 125.1 45.2 125.1 45.8L125 47.3C125 47.9 124.6 48 124.2 47.6L123.2 46.6C122.8 46.2 122.4 46.4 122.3 46.9L122 48.7C121.9 49.3 121.5 49.4 121.1 49L119.9 47.8C119.4 47.4 119.1 47.6 119 48.2L118.9 49.1C118.8 49.7 118.3 49.9 117.8 49.7L117.2 49.4ZM151.2 57.8L144.7 40.5C144.5 39.9 144.2 39.9 144 40.5L143.6 41.9C143.5 42.5 143 42.6 142.6 42.2L141.4 40.9C141 40.4 140.7 40.6 140.6 41.1L140.5 42.6C140.5 43.2 140.1 43.4 139.7 43L138.7 42C138.3 41.6 137.9 41.7 137.8 42.3L137.5 44.1C137.4 44.6 137 44.8 136.6 44.4L135.4 43.2C135 42.8 134.6 42.9 134.5 43.5L134.4 44.5C134.3 45 133.9 45.3 133.3 45L132.7 44.7C132.2 44.4 131.9 44.7 132.1 45.2L138.5 62.1C138.7 62.6 138.9 62.6 139 62L139.1 60.2C139.1 59.6 139.5 59.5 139.9 59.9L141.4 61.4C141.8 61.8 142.1 61.7 142.1 61.1V58.7C142 58.1 142.4 58 142.8 58.4L144 59.6C144.4 60.1 144.8 59.9 144.9 59.3L145.2 57.6C145.3 57 145.7 56.9 146 57.3L147.3 59C147.7 59.4 148 59.3 148.1 58.7L148.2 56.8C148.2 56.2 148.6 56.1 149 56.4L150.8 58.1C151.2 58.5 151.4 58.4 151.2 57.8ZM235.4 110L230 108.5C229.5 108.3 229.5 108 230 107.8L234 106.1C234.5 105.9 234.5 105.5 234 105.3L230.2 103.7C229.6 103.4 229.6 103.1 230.2 102.8L235.5 100.5C236 100.3 236 100 235.4 99.8L229.9 98.2C229.3 98 229.3 97.7 229.8 97.4L232.9 95.9C233.4 95.7 233.3 95.5 232.8 95.5L212.1 95.2L211.3 71.7H231.7C232.3 71.7 232.3 71.5 231.8 71.3L226.6 69.2C226.1 69 226.1 68.7 226.7 68.6L231.9 67.6C232.4 67.4 232.4 67.2 231.9 67.1L226.7 65.6C226.2 65.5 226.1 65.1 226.6 64.8L230.7 62.2C231.2 61.9 231.1 61.5 230.6 61.3L226.7 59.9C226.2 59.7 226.1 59.4 226.7 59.2L232 57C232.5 56.7 232.5 56.4 232 56.2L226.7 54.2C226.1 54 226.1 53.6 226.6 53.3L229.5 51.9C230 51.6 230 51.4 229.4 51.4L171 51.6C170.4 51.6 170.4 51.9 170.9 52.2L175 54.7C175.5 55 175.5 55.3 174.9 55.4L169.6 56.2C169 56.3 168.9 56.5 169.5 56.7L174.9 59C175.5 59.2 175.5 59.5 174.9 59.7L169.8 61.2C169.3 61.4 169.2 61.7 169.7 62L173.9 64.2C174.4 64.5 174.4 64.9 173.8 65L168.1 66.6C167.5 66.8 167.5 67 168.1 67.2L173.4 68.4C174 68.5 174 68.9 173.6 69.2L170.8 71.2C170.3 71.5 170.4 71.8 171 71.8H191.1L191.9 94.9L169.1 94.6C168.5 94.6 168.5 94.8 169 95L172.8 96.8C173.4 97.1 173.3 97.4 172.8 97.6L167.6 99C167 99.1 167 99.5 167.5 99.7L172.2 101.8C172.7 102 172.7 102.4 172.1 102.6L167.8 104.1C167.3 104.3 167.3 104.7 167.8 104.9L170.9 106.8C171.4 107.1 171.4 107.4 170.8 107.6L166.3 109.2C165.8 109.4 165.8 109.6 166.4 109.7L174 110.8C174.5 110.9 174.6 111.2 174 111.4L165.9 114.6C165.3 114.8 165.3 115 165.9 115L235.1 115.4C235.6 115.4 235.7 115.2 235.1 115L229.8 113.2C229.3 113 229.3 112.7 229.8 112.5L235.4 110.6C236 110.5 236 110.2 235.4 110ZM344 70.1L337.1 68.3C336.5 68.2 336.6 67.9 337.1 67.8L344.1 66.1C344.6 66 344.6 65.8 344 65.7L337.5 64.6C336.9 64.5 336.9 64.2 337.5 64.1L343.2 62.1C343.7 61.9 343.7 61.8 343.1 61.8L256.4 62C255.8 62 255.7 62.2 256.3 62.4L260.3 64.2C260.9 64.4 260.9 64.8 260.3 65L256.6 66.7C256.1 66.9 256.1 67.3 256.6 67.5L260.1 68.9C260.6 69.1 260.6 69.5 260.1 69.7L256.6 71.3C256.1 71.6 256.1 72 256.6 72.2L260.2 74C260.8 74.2 260.8 74.6 260.2 74.9L256.6 76.7C256.1 77 256.1 77.4 256.6 77.5L260.4 78.8C260.9 79 261 79.4 260.5 79.7L257.8 81.5C257.3 81.9 257.4 82.1 258 82.1L343.2 81.4C343.8 81.4 343.8 81.2 343.3 80.9L337.5 78.5C337 78.3 337 78 337.6 77.8L343.5 76C344.1 75.8 344.1 75.5 343.6 75.3L338 73.4C337.4 73.2 337.4 72.9 338 72.7L344.1 70.7C344.6 70.6 344.6 70.3 344 70.1ZM447.7 112.5L442.6 99.5L443 99.3C443.5 99 443.4 98.6 442.9 98.5L442.2 98.4L441 95.2L443.5 93.8C444 93.5 444 93.3 443.4 93.3L440.2 93.2L439.2 90.6L440.3 89.7C440.8 89.3 440.7 89.1 440.1 89.2L438.7 89.3L428.3 62.5C428.1 62 427.9 62 427.8 62.6L426.9 67.3C426.8 67.9 426.3 68 426 67.6L422.1 63.4C421.8 63 421.5 63.1 421.6 63.7L422.2 69.4C422.2 70 422 70.1 421.6 69.7L418.5 66.5C418.1 66 417.8 66.2 417.8 66.8L417.9 71.4C417.9 71.9 417.6 72.1 417.2 71.6L413.2 67.2C412.9 66.7 412.6 66.8 412.6 67.4L412.8 73.1C412.8 73.7 412.5 73.9 412 73.5L409.6 71.4C409.1 71 408.9 71.2 409.2 71.7L417.3 91.7L384.2 95.5L407.1 35.5C407.3 35 407.1 34.9 406.7 35.3L403.6 38.1C403.2 38.5 402.8 38.3 402.8 37.7L403 32.2C403.1 31.6 402.8 31.5 402.4 31.9L398.7 36C398.3 36.4 398 36.3 398.1 35.7L398.9 29.9C399 29.3 398.7 29.2 398.4 29.6L394.2 34.6C393.8 35.1 393.6 35 393.6 34.4L394 28.7C394 28.2 393.8 28 393.4 28.5L389.5 32.9C389.1 33.3 388.8 33.2 388.8 32.6L389 27.4C389 26.8 388.9 26.8 388.7 27.3L361.7 98L353.6 99C353 99 353 99.2 353.6 99.4L357.4 100.6C358 100.8 358 101.2 357.5 101.4L352.9 103.6C352.3 103.9 352.4 104.2 352.9 104.4L358.2 105.8C358.7 105.9 358.8 106.3 358.3 106.6L353.9 108.9C353.4 109.2 353.5 109.4 354.1 109.5L359.3 110.2C359.9 110.2 359.9 110.5 359.4 110.8L355.1 113.3C354.6 113.6 354.6 113.9 355.2 114L360 115.1C360.6 115.2 360.6 115.6 360.2 116L358.1 117.7C357.6 118.1 357.7 118.3 358.3 118.2L425.1 110.6L429.1 120.4C429.3 120.9 429.5 120.9 429.5 120.3L429.7 116.2C429.8 115.6 430.1 115.5 430.4 116L433.7 120C434.1 120.5 434.4 120.4 434.4 119.8L434.6 114.9C434.6 114.3 434.9 114.2 435.3 114.6L438.9 119C439.3 119.4 439.6 119.3 439.6 118.8L439.7 114C439.7 113.5 440.1 113.3 440.5 113.7L443.9 117.3C444.3 117.7 444.6 117.6 444.6 117L444 112C443.9 111.4 444.2 111.2 444.7 111.5L447.1 113C447.6 113.2 447.9 113.1 447.7 112.5ZM510.6 77.4L531.1 54.4C531.5 53.9 531.3 53.7 530.8 53.8L528.5 54.3C527.9 54.5 527.7 54.1 527.9 53.6L530 49.1C530.2 48.5 530 48.3 529.4 48.6L524.6 51.1C524 51.4 523.8 51.1 524 50.6L524.5 49.3L524.8 49.2C525.4 49 525.4 48.6 524.8 48.5L525.6 46.5C525.8 45.9 525.5 45.7 525 46L521.9 47.6L520.6 47.2C520.3 47.1 520.2 47 520.1 46.9C520.2 46.7 520.3 46.6 520.3 46.6C520.5 46.7 520.6 46.7 520.7 46.7C520.9 46.6 520.9 46.5 520.9 46.3L524.8 44.5C525.3 44.2 525.3 43.8 524.8 43.6L523.9 43.3L524 42.6C524.1 42.1 524.5 42 524.8 42.4L526.2 44C526.5 44.5 526.9 44.4 526.9 43.8L527 41.9C527 41.3 527.4 41.1 527.8 41.5L529.6 43.2C530 43.6 530.2 43.4 530 42.9L523.5 25.5C523.3 25 523 25 522.9 25.6L522.4 27C522.3 27.6 521.8 27.7 521.4 27.2L520.2 25.9C519.9 25.5 519.5 25.6 519.5 26.2L519.4 27.7C519.3 28.3 518.9 28.4 518.5 28L517.5 27.1C517.1 26.6 516.7 26.8 516.6 27.4L516.3 29.1C516.2 29.7 515.8 29.8 515.4 29.4L514.2 28.3C513.8 27.9 513.4 28 513.3 28.6L513.2 29.5C513.2 30.1 512.7 30.4 512.2 30.1L511.5 29.8C511 29.5 510.7 29.7 511 30.3L512.3 34H457C456.4 34 456.4 34.2 456.9 34.4L461.6 36.3C462.1 36.5 462.1 36.8 461.5 36.9L455.2 38.5C454.6 38.6 454.6 38.9 455.2 39.1L460.8 41.3C461.4 41.5 461.4 41.8 460.8 42L455.6 43.5C455 43.7 455 44.1 455.5 44.3L459.4 46.2C459.9 46.5 459.9 46.9 459.4 47.1L455.2 48.7C454.7 48.9 454.7 49.3 455.2 49.4L459.7 50.9C460.3 51.1 460.3 51.5 459.8 51.7L455.6 53.7C455.1 54 455.1 54.2 455.7 54.2L503.8 54.1L454.3 108.3C453.9 108.8 454 109 454.6 108.7L461.6 105.9C462.2 105.7 462.4 105.9 462.1 106.4L458.9 112.3C458.6 112.8 458.8 113 459.3 112.7L464.5 109.7C465 109.4 465.2 109.6 465 110.1L463 114.4C462.7 114.9 463 115.2 463.5 114.9L469 112.3C469.5 112 469.7 112.3 469.5 112.8L467.2 118.7C467 119.2 467.1 119.4 467.6 119L472.2 115.2C472.7 114.8 472.9 114.9 472.7 115.5L470.5 121.7C470.3 122.3 470.5 122.4 470.9 121.9L497.1 92.5L527.3 122.4C527.7 122.8 528 122.7 527.9 122.1L527.5 117.4C527.4 116.9 527.7 116.7 528.2 117.1L531.6 120.2C532 120.5 532.3 120.4 532.1 119.9L530.6 115.4C530.4 114.8 530.7 114.6 531.2 114.9L536 117.6C536.5 117.9 536.7 117.7 536.5 117.1L534.7 112.1C534.5 111.6 534.8 111.3 535.3 111.6L540 114C540.5 114.2 540.7 114 540.4 113.5L538.1 109.3C537.8 108.8 538 108.5 538.6 108.5L541.4 108.9C541.9 108.9 542.1 108.6 541.7 108.2L510.6 77.4ZM547 42.6L540.5 25.2C540.3 24.7 540 24.7 539.8 25.2L539.4 26.7C539.2 27.2 538.8 27.3 538.4 26.9L537.2 25.6C536.8 25.2 536.5 25.3 536.4 25.9L536.3 27.4C536.3 28 535.9 28.1 535.5 27.7L534.5 26.7C534.1 26.3 533.7 26.4 533.6 27L533.3 28.8C533.2 29.4 532.8 29.5 532.4 29.1L531.2 27.9C530.8 27.5 530.4 27.7 530.3 28.2L530.2 29.2C530.1 29.8 529.6 30 529.1 29.8L528.5 29.4C528 29.2 527.7 29.4 527.9 30L534.3 46.8C534.5 47.4 534.7 47.4 534.7 46.8L534.9 45C534.9 44.4 535.3 44.3 535.7 44.7L537.2 46.1C537.6 46.6 537.9 46.4 537.9 45.8L537.8 43.5C537.8 42.9 538.1 42.7 538.6 43.2L539.8 44.4C540.2 44.8 540.6 44.7 540.7 44.1L541 42.3C541.1 41.7 541.4 41.6 541.8 42.1L543.1 43.7C543.5 44.2 543.8 44.1 543.8 43.5L543.9 41.5C544 40.9 544.3 40.8 544.8 41.2L546.5 42.8C547 43.2 547.2 43.1 547 42.6Z" fill="#FF6347"/>
<path d="M120.2 139.12C120.2 138.92 120.08 138.84 119.92 139L119.2 139.72L118.96 139.56C118.76 139.44 118.76 139.24 118.92 139.08L119.68 138.36C119.88 138.2 119.8 138.04 119.56 138.04L100.64 138C100.44 138 100.4 138.12 100.56 138.28L101 138.64L100.6 139.4C100.48 139.6 100.28 139.6 100.12 139.44L99.36 138.48C99.2 138.28 99.08 138.36 99.08 138.56L99 164.92L97.96 166.88V141.04C97.96 140.8 97.84 140.76 97.68 140.96L97.08 141.68L96.56 141.32C96.36 141.2 96.36 140.96 96.52 140.8L97.36 140.04C97.56 139.88 97.48 139.76 97.24 139.76H84.76C84.52 139.76 84.44 139.88 84.64 140.04L85.12 140.56L84.64 141.8C84.56 142 84.4 142 84.28 141.8L83.36 140.2C83.24 140 83.16 140 83.16 140.24V173.88C83.16 174.08 83.28 174.12 83.4 173.92L84.36 172.36C84.48 172.16 84.64 172.16 84.76 172.4L85.28 173.76C85.36 174 85.52 174 85.64 173.8L86.56 172.4C86.68 172.2 86.84 172.24 86.92 172.44L87.48 173.84C87.56 174.04 87.72 174.04 87.8 173.84L88.4 172.4C88.48 172.2 88.68 172.16 88.76 172.36L89.52 173.68C89.64 173.88 89.76 173.88 89.76 173.64V171.68H95.44L94.68 173.16C94.56 173.36 94.64 173.44 94.84 173.32L96.52 172.28C96.72 172.16 96.8 172.24 96.72 172.44L96.12 174.24C96.04 174.44 96.16 174.52 96.32 174.36L97.88 173.12C98.04 172.96 98.16 173.04 98.12 173.28L97.76 175.04C97.72 175.28 97.84 175.36 98.04 175.2L99.48 174.08C99.68 173.92 99.8 174 99.8 174.24L99.76 176.12C99.72 176.36 99.88 176.44 100.04 176.28L101.56 174.92C101.72 174.76 101.92 174.84 101.96 175.04L102.28 176.36C102.32 176.6 102.44 176.6 102.56 176.4L106.2 169.52L107.4 170.28C107.6 170.44 107.56 170.6 107.36 170.68L105.68 171.32C105.48 171.44 105.48 171.56 105.68 171.68L107.44 172.52C107.64 172.6 107.64 172.76 107.4 172.84L105.64 173.56C105.4 173.64 105.4 173.76 105.64 173.84L107.12 174.44C107.36 174.52 107.36 174.68 107.16 174.76L105.32 175.68C105.12 175.8 105.12 175.88 105.36 175.88H119.12C119.36 175.88 119.4 175.76 119.2 175.64L118.32 175L118.84 173.84L119.08 173.72C119.12 173.68 119.12 173.64 119.16 173.64C119.2 173.64 119.24 173.64 119.32 173.72L120.08 174.56C120.2 174.72 120.36 174.68 120.36 174.44L120.2 139.12ZM89.76 148.28H91.4L91.44 151.44H89.76V148.28ZM89.76 159.96H91.48L91.52 163.16H89.76V159.96ZM111.72 147.16H107.56V144.88L111.72 144.84V147.16ZM107.56 154.04L111.76 154V156.6H107.56V154.04ZM106.36 169.2L108.24 165.64C108.36 165.44 108.28 165.32 108.04 165.4L107.52 165.56V163.44L111.76 163.4L111.8 169.28L106.36 169.2ZM159.44 139.92C159.44 139.68 159.32 139.64 159.16 139.8L158.2 140.8L157.36 140.6L156.92 139.88C156.8 139.68 156.6 139.68 156.48 139.92L156.24 140.32L156.04 140.28C155.8 140.24 155.8 140.08 156 140L158.4 138.84C158.6 138.76 158.6 138.68 158.36 138.68H126C125.76 138.68 125.72 138.8 125.92 138.92L127.04 139.6C127.24 139.72 127.24 139.84 127 139.92L126.8 140L126.32 139.32C126.2 139.12 126.04 139.12 126 139.36L125.72 140.36L125.16 140.52L124.4 139.44C124.28 139.24 124.16 139.24 124.16 139.48L124.04 176.36C124.04 176.6 124.12 176.6 124.2 176.4L125.04 174.52C125.12 174.32 125.28 174.32 125.36 174.52L125.96 176.36C126.04 176.6 126.2 176.6 126.28 176.4L127.24 174.36C127.32 174.16 127.48 174.16 127.56 174.4L128.36 176.44C128.44 176.68 128.6 176.68 128.72 176.48L129.64 174.72C129.72 174.48 129.88 174.52 129.96 174.72L130.6 176.36C130.68 176.6 130.84 176.6 130.92 176.4L131.72 174.76C131.84 174.56 132 174.56 132.12 174.76L133.12 176.4C133.24 176.6 133.36 176.56 133.36 176.36V173.76H150.32V176.36C150.32 176.6 150.4 176.6 150.48 176.4L151.32 174.6C151.4 174.36 151.56 174.4 151.64 174.6L152.24 176.36C152.32 176.6 152.48 176.6 152.6 176.4L153.56 174.64C153.68 174.44 153.84 174.44 153.92 174.68L154.64 176.4C154.72 176.64 154.84 176.64 154.96 176.4L155.64 174.64C155.72 174.4 155.88 174.4 155.96 174.6L156.84 176.4C156.92 176.6 157.08 176.6 157.2 176.4L157.96 174.76C158.08 174.56 158.24 174.56 158.36 174.76L159.4 176.44C159.52 176.64 159.64 176.6 159.64 176.36L159.44 139.92ZM133.4 147.28H150.24L150.28 151.88H133.36L133.4 147.28ZM133.36 165.16V160.44H150.28V165.16H133.36ZM198.72 154.32L196.32 154.6C196.08 154.64 196.04 154.52 196.2 154.4L197.92 152.84C198.12 152.72 198.04 152.6 197.84 152.64L195.64 152.88C195.4 152.92 195.36 152.8 195.52 152.64L197.44 151.08C197.64 150.96 197.6 150.88 197.36 150.92L194.84 151.44C194.6 151.48 194.52 151.4 194.68 151.2L195.84 149.72C195.96 149.52 195.92 149.44 195.68 149.52C185.4 154.16 185.04 154.32 184.8 154.16C184.56 154 184.88 153.64 185.12 153.56L186.56 152.96C186.8 152.92 186.8 152.8 186.56 152.76L185.4 152.24C185.16 152.16 185.12 151.96 185.28 151.8L185.56 151.56C185.72 151.4 185.68 151.28 185.44 151.28L177.24 151.2L177.88 149.56H190.96C191.2 149.56 191.28 149.44 191.12 149.24L190 148.16C189.84 148 189.88 147.8 190.12 147.72L191.52 147.28C191.76 147.2 191.76 147.08 191.52 147L190.32 146.6C190.08 146.52 190.08 146.36 190.28 146.24L191.76 145.4C191.96 145.28 191.96 145.12 191.76 145.04L190.48 144.52C190.28 144.44 190.28 144.32 190.48 144.24L191.96 143.6C192.16 143.52 192.16 143.36 191.96 143.32L190.08 142.68C189.88 142.6 189.88 142.44 190.08 142.36L191.56 141.72C191.76 141.6 191.76 141.52 191.52 141.52L180.96 141.48L181.52 140.04C181.6 139.84 181.52 139.72 181.28 139.84L180.56 140.2C180.36 140.32 180.2 140.2 180.24 139.96L180.36 138.4C180.4 138.2 180.28 138.12 180.08 138.28L178.84 139.56C178.68 139.76 178.52 139.68 178.48 139.44L178.32 138.4C178.28 138.16 178.12 138.12 177.92 138.28L176.88 139.28C176.68 139.44 176.56 139.36 176.52 139.16L176.48 137.68C176.48 137.44 176.36 137.4 176.24 137.6L175.2 139C175.04 139.2 174.88 139.2 174.84 138.96L174.6 138.08C174.52 137.84 174.4 137.84 174.32 138.04L173.04 141.48L163.24 141.44C163 141.44 162.96 141.56 163.16 141.68L164.2 142.36C164.4 142.48 164.36 142.64 164.12 142.72L162.64 143.24C162.4 143.32 162.4 143.44 162.6 143.56L164.12 144.24C164.32 144.36 164.32 144.48 164.08 144.52L162.84 144.84C162.6 144.88 162.6 145 162.8 145.08L164.2 145.64C164.4 145.76 164.44 145.92 164.24 146.04L162.52 147.24C162.32 147.36 162.32 147.52 162.56 147.6L164.08 148.08C164.32 148.16 164.32 148.32 164.16 148.48L163.28 149.28C163.08 149.44 163.16 149.56 163.36 149.56H170.04L167.12 157.44C167.04 157.64 167.08 157.68 167.24 157.52L168.76 155.84C168.88 155.68 169 155.72 168.96 155.96L168.72 157.64C168.72 157.88 168.8 157.92 168.96 157.76L169.92 156.8H170.56V157.88C170.56 158.12 170.68 158.16 170.84 157.96L171.72 156.84H172.32L172.44 158.72C172.44 158.96 172.56 159 172.68 158.76L173.68 156.88H174.04L174.28 158.24C174.32 158.48 174.44 158.48 174.52 158.24L175.08 156.84H178.8L170.4 160.28C170.2 160.36 170.2 160.44 170.44 160.48H170.56L170.48 161.48C170.44 161.72 170.28 161.8 170.08 161.64L168.92 160.76C168.72 160.6 168.56 160.68 168.52 160.92L168.36 162.32C168.32 162.56 168.16 162.6 168 162.44L167 161.6C166.8 161.44 166.64 161.48 166.6 161.72L166.48 162.64C166.44 162.88 166.24 162.96 166.04 162.84L165.2 162.36C165 162.28 164.88 162.36 164.96 162.56L169.04 174.72C169.12 174.92 169.2 174.92 169.2 174.68L169.32 173.28C169.32 173.04 169.52 172.96 169.72 173.08L170.56 173.56C170.76 173.68 170.96 173.56 171 173.36L171.04 173.12L172.48 173.48C172.72 173.52 172.76 173.68 172.56 173.8L171.44 174.52C171.24 174.64 171.24 174.72 171.48 174.72L195.56 175.16C195.8 175.16 195.8 175.08 195.6 175L193.96 174.28C193.72 174.16 193.76 174.04 193.96 174.04L196.08 173.72C196.28 173.68 196.32 173.56 196.12 173.44L194.08 172.48C193.84 172.36 193.88 172.24 194.08 172.16L196 171.56C196.24 171.48 196.24 171.36 196 171.32L193.88 170.68C193.64 170.6 193.64 170.52 193.88 170.44L196.24 169.68C196.48 169.6 196.48 169.48 196.24 169.44L194.12 168.8C193.88 168.72 193.88 168.6 194.08 168.48L195.32 167.76C195.52 167.64 195.52 167.56 195.28 167.52L175.12 167.16L174.76 166.04L184.2 162.36L183.96 165.76C183.96 166 184 166 184.12 165.8L184.84 164.28C184.96 164.08 185.08 164.08 185.16 164.28L185.76 165.92C185.84 166.16 185.96 166.16 186.04 165.96L186.68 164.48C186.76 164.28 186.92 164.28 187 164.48L187.6 165.84C187.68 166.08 187.84 166.08 187.96 165.88L188.76 164.28C188.84 164.08 189 164.08 189.08 164.32L189.68 166.08C189.72 166.28 189.88 166.28 189.96 166.08L190.68 164.52C190.76 164.32 190.92 164.32 191 164.52L191.68 166C191.8 166.2 191.88 166.16 191.92 165.96L192.32 159.2L198.48 156.84C198.68 156.72 198.68 156.64 198.44 156.56L196.92 156.24C196.68 156.2 196.64 156.04 196.84 155.92L198.8 154.52C199 154.36 198.96 154.28 198.72 154.32ZM172.16 160.48C172.68 160.64 171.8 161.12 171.8 161.12L171.28 160.48C171.28 160.48 171.92 160.4 172.16 160.48ZM171.2 172C171.24 171.76 171.32 171.64 171.6 171.76C171.88 171.88 172.24 172.12 172.24 172.12L171.16 172.4L171.2 172ZM240.48 149.84C240.72 149.84 240.76 149.76 240.56 149.64L222.16 136.92C221.96 136.8 221.88 136.84 221.92 137.08L222.52 138.64C222.6 138.88 222.48 139 222.24 138.96L220.8 138.64C220.56 138.6 220.48 138.72 220.6 138.92L220.68 139.04L219.92 139.28C219.68 139.32 219.6 139.2 219.68 139L220.48 137.32C220.6 137.12 220.52 137.04 220.32 137.16L201.04 150.8C200.84 150.96 200.88 151 201.08 150.96L203.16 150.4C203.36 150.36 203.44 150.48 203.32 150.64L201.76 152.6C201.64 152.76 201.68 152.88 201.92 152.8L204.12 152.16C204.36 152.08 204.44 152.2 204.28 152.36L202.88 154.28C202.76 154.48 202.8 154.56 203.04 154.52L205.32 153.76C205.52 153.72 205.6 153.8 205.48 154L204.4 155.68C204.28 155.88 204.36 156 204.6 155.96L206.44 155.6C206.68 155.56 206.76 155.68 206.68 155.88L205.96 157.52C205.84 157.72 205.92 157.8 206.12 157.64L210.12 154.84L210.76 155.08C210.96 155.2 211 155.36 210.8 155.48L209.08 156.48C208.88 156.6 208.88 156.72 209.12 156.72L233.24 156.52C233.48 156.52 233.52 156.4 233.32 156.28L232 155.4C231.8 155.24 231.8 155.04 232.04 154.92L232.68 154.56L235.68 156.64C235.88 156.8 235.92 156.72 235.8 156.52L234.8 154.92C234.64 154.76 234.72 154.64 234.96 154.72L237.04 155.48C237.28 155.56 237.36 155.48 237.2 155.28L236.04 153.44C235.92 153.24 236 153.12 236.2 153.24L238.12 154C238.32 154.08 238.4 154 238.28 153.8L237.12 151.76C237 151.56 237.12 151.44 237.32 151.48L239.32 151.88C239.56 151.96 239.64 151.84 239.52 151.64L238.48 150.04C238.36 149.84 238.44 149.68 238.68 149.72L240.48 149.84ZM221.36 140.28C221.48 140.48 221.4 140.56 221.2 140.48L220.72 140.36L221.12 139.8L221.36 140.28ZM217.44 149.64L221.48 146.8L225.6 149.68L217.44 149.64ZM236.68 164.92L236.12 164.64C236.28 164.44 236.24 164.36 236 164.4L235.8 164.48L234.72 163.92C234.48 163.84 234.48 163.68 234.72 163.56L236.52 162.8C236.72 162.72 236.72 162.56 236.52 162.44L234.76 161.64C234.56 161.56 234.56 161.4 234.8 161.28L236.44 160.6C236.64 160.52 236.64 160.36 236.44 160.28L234.72 159.68C234.52 159.6 234.48 159.44 234.72 159.36L236.44 158.44C236.68 158.36 236.64 158.28 236.4 158.28L204.96 158.24C204.72 158.24 204.68 158.32 204.88 158.44L206.64 159.52C206.84 159.64 206.8 159.8 206.6 159.88L204.52 160.52C204.28 160.6 204.28 160.76 204.52 160.84L206.48 161.68C206.68 161.8 206.68 161.92 206.48 162L204.44 162.84C204.24 162.92 204.24 163.04 204.44 163.12L206.36 163.76C206.56 163.84 206.56 164 206.36 164.08L204.12 165.12C203.92 165.2 203.92 165.28 204.16 165.28L224.24 165.2L222.2 167.48L211.88 167.4C211.64 167.4 211.64 167.48 211.84 167.56L213.84 168.32C214.04 168.4 214.04 168.56 213.8 168.64L211.8 169.32C211.56 169.4 211.56 169.52 211.8 169.6L213.6 170.28C213.84 170.4 213.84 170.52 213.6 170.6L211.84 171.36C211.64 171.44 211.64 171.56 211.84 171.64L213.64 172.32C213.84 172.4 213.84 172.52 213.64 172.64L211.72 173.44C211.52 173.56 211.52 173.68 211.72 173.76L213.44 174.48C213.68 174.56 213.68 174.72 213.48 174.8L211.48 175.76C211.28 175.84 211.28 175.92 211.52 175.92L225.44 176L225.36 176.44C225.32 176.68 225.4 176.72 225.56 176.56L235.68 165.12H236.64C236.84 165.12 236.88 165.04 236.68 164.92ZM224.52 174.88L225.4 174.48C225.6 174.4 225.76 174.48 225.72 174.72L225.56 175.52L224.52 174.88ZM278.24 139.92C278.24 139.68 278.12 139.64 277.96 139.8L277 140.8L276.16 140.6L275.72 139.88C275.6 139.68 275.4 139.68 275.28 139.92L275.04 140.32L274.84 140.28C274.6 140.24 274.6 140.08 274.8 140L277.2 138.84C277.4 138.76 277.4 138.68 277.16 138.68H244.8C244.56 138.68 244.52 138.8 244.72 138.92L245.84 139.6C246.04 139.72 246.04 139.84 245.8 139.92L245.6 140L245.12 139.32C245 139.12 244.84 139.12 244.8 139.36L244.52 140.36L243.96 140.52L243.2 139.44C243.08 139.24 242.96 139.24 242.96 139.48L242.84 176.36C242.84 176.6 242.92 176.6 243 176.4L243.84 174.52C243.92 174.32 244.08 174.32 244.16 174.52L244.76 176.36C244.84 176.6 245 176.6 245.08 176.4L246.04 174.36C246.12 174.16 246.28 174.16 246.36 174.4L247.16 176.44C247.24 176.68 247.4 176.68 247.52 176.48L248.44 174.72C248.52 174.48 248.68 174.52 248.76 174.72L249.4 176.36C249.48 176.6 249.64 176.6 249.72 176.4L250.52 174.76C250.64 174.56 250.8 174.56 250.92 174.76L251.92 176.4C252.04 176.6 252.16 176.56 252.16 176.36V173.76H269.12V176.36C269.12 176.6 269.2 176.6 269.28 176.4L270.12 174.6C270.2 174.36 270.36 174.4 270.44 174.6L271.04 176.36C271.12 176.6 271.28 176.6 271.4 176.4L272.36 174.64C272.48 174.44 272.64 174.44 272.72 174.68L273.44 176.4C273.52 176.64 273.64 176.64 273.76 176.4L274.44 174.64C274.52 174.4 274.68 174.4 274.76 174.6L275.64 176.4C275.72 176.6 275.88 176.6 276 176.4L276.76 174.76C276.88 174.56 277.04 174.56 277.16 174.76L278.2 176.44C278.32 176.64 278.44 176.6 278.44 176.36L278.24 139.92ZM252.2 147.28H269.04L269.08 151.88H252.16L252.2 147.28ZM252.16 165.16V160.44H269.08V165.16H252.16ZM318.32 162.96L316.08 162C315.84 161.92 315.88 161.8 316.08 161.72L318.08 161.16C318.28 161.08 318.28 161 318.08 160.88L316.2 160.16C315.96 160.08 315.96 159.96 316.2 159.88L317.92 159.32C318.16 159.24 318.16 159.12 317.92 159.04L315.76 158.32C315.56 158.24 315.56 158.12 315.76 158.04L318.28 157.32C318.52 157.24 318.52 157.16 318.28 157.08L316.32 156.6C316.08 156.56 316.08 156.4 316.28 156.28L317.88 155.32C318.08 155.2 318.08 155.08 317.84 155.08L305.4 155.24L305.24 151.28L317.6 151C317.84 151 317.88 150.92 317.68 150.8L316.12 149.84C315.92 149.72 315.92 149.56 316.16 149.44L317.32 148.96C317.56 148.88 317.56 148.72 317.32 148.64L315.72 148.04C315.48 147.96 315.48 147.8 315.72 147.72L317.32 147C317.52 146.92 317.52 146.76 317.28 146.72L315.56 146.24C315.32 146.16 315.32 146.04 315.52 145.96L316.88 145.32C317.08 145.24 317.08 145.08 316.88 145.04L315.56 144.64C315.32 144.6 315.32 144.44 315.52 144.32L317.04 143.4C317.24 143.28 317.2 143.2 316.96 143.2L304.92 143.32L304.72 137.72C304.72 137.48 304.64 137.44 304.56 137.68L303.8 139.48C303.68 139.68 303.56 139.68 303.48 139.48L302.64 137.36C302.56 137.16 302.44 137.16 302.4 137.4L301.92 139.6C301.88 139.84 301.76 139.84 301.68 139.64L300.8 137.68C300.72 137.44 300.6 137.48 300.56 137.68L300.04 139.56C300 139.8 299.88 139.8 299.76 139.6L298.8 137.52C298.72 137.28 298.56 137.28 298.48 137.52L297.76 139.68C297.68 139.92 297.56 139.92 297.48 139.68L296.72 137.72C296.64 137.48 296.56 137.52 296.6 137.72L297.28 155.32L285 155.44C284.76 155.44 284.76 155.52 284.96 155.64L286.64 156.4C286.84 156.52 286.84 156.64 286.64 156.72L284.96 157.28C284.72 157.36 284.72 157.48 284.96 157.56L286.04 157.92C286.24 158 286.28 158.16 286.04 158.24L284.8 158.8C284.6 158.88 284.6 159.04 284.84 159.12L286.88 159.84C287.12 159.92 287.12 160.04 286.88 160.12L285.08 160.8C284.84 160.88 284.84 161 285.08 161.08L286.36 161.52L286.4 161.64C286.52 161.84 286.44 161.96 286.2 161.88L284.68 161.36C284.48 161.28 284.4 161.36 284.52 161.56L285.4 162.84C285.56 163.04 285.48 163.12 285.28 163.04L283.6 162.4C283.4 162.28 283.28 162.4 283.4 162.6L283.92 163.68C284 163.92 283.92 164 283.68 163.96L281.96 163.44C281.76 163.36 281.72 163.44 281.88 163.6L296.2 176.28C296.36 176.44 296.44 176.36 296.36 176.16L296.12 175.32C296.04 175.08 296.16 174.96 296.4 175.04L297.6 175.48C297.8 175.56 297.92 175.44 297.8 175.2L297.2 173.84C297.08 173.64 297.2 173.52 297.4 173.6L298.04 173.84V174.6C298.08 174.84 298.2 174.88 298.32 174.68L298.76 174.12L299.04 174.2C299.24 174.28 299.36 174.2 299.24 174L299.08 173.68L299.44 173.2C299.6 173 299.72 173.04 299.76 173.28L299.92 175.12C299.96 175.32 300.04 175.36 300.16 175.16L300.92 173.4C301.04 173.2 301.16 173.2 301.24 173.44L301.88 174.92C301.96 175.16 302.12 175.16 302.24 174.96L302.96 173.56C303.08 173.36 303.24 173.36 303.36 173.56L303.8 174.68C303.92 174.92 304 174.88 304.08 174.68L304.24 173.76C304.28 173.56 304.48 173.48 304.68 173.6L305.8 174.48C306 174.6 306.12 174.52 306.12 174.28L305.68 163.08L318.28 163.12C318.52 163.12 318.52 163.08 318.32 162.96ZM297.8 167.92L292.04 163.04L297.6 163.08L297.8 167.92ZM354.96 138.68L354 140C353.88 140.2 353.72 140.16 353.68 139.92L353.4 137.8C353.36 137.6 353.28 137.56 353.16 137.8L352.24 139.88C352.16 140.08 352.04 140.08 351.96 139.84L351.36 138.2C351.28 137.96 351.12 137.96 351.04 138.2L350.2 140.24C350.12 140.48 350 140.48 349.92 140.24L349.28 138.04C349.2 137.8 349.12 137.8 349.04 138.04L348.4 140.16C348.32 140.36 348.2 140.4 348.08 140.2L347.4 139C347.32 138.8 347.2 138.8 347.2 139.04L344.48 175.76C344.44 176 344.52 176.04 344.64 175.8L345.92 173.4C346.04 173.2 346.2 173.24 346.24 173.44L346.8 175.72C346.88 175.96 347 175.96 347.08 175.76L347.96 173.36C348.04 173.16 348.16 173.16 348.2 173.4L348.84 175.64C348.88 175.84 349 175.88 349.08 175.64L349.96 173.48C350.08 173.28 350.2 173.28 350.24 173.48L350.84 175.52C350.92 175.72 351 175.72 351.08 175.52L351.8 173.16C351.88 172.96 352 172.96 352.08 173.16L352.84 175.44C352.92 175.64 353 175.64 353.04 175.4L355.2 138.76C355.2 138.52 355.12 138.48 354.96 138.68ZM340.44 161.56C340.24 161.56 340.16 161.4 340.32 161.2L341.52 159.84C341.68 159.68 341.6 159.56 341.36 159.56L339.56 159.72C339.32 159.76 339.24 159.6 339.36 159.4L340.44 157.8C340.56 157.6 340.48 157.48 340.24 157.52L338.76 157.8C338.52 157.84 338.44 157.72 338.56 157.52L339.4 156.24C339.52 156.08 339.44 155.96 339.24 156L337.68 156.28C337.44 156.32 337.36 156.2 337.48 156L338 154.96C338.08 154.76 338 154.68 337.8 154.8L334.08 157.12L333.6 140.12C333.6 139.92 333.48 139.88 333.36 140.08L332.4 141.76C332.28 141.96 332.16 141.92 332.12 141.68L331.76 139.56C331.72 139.36 331.64 139.32 331.52 139.56L330.68 141.72C330.6 141.96 330.48 141.96 330.4 141.72L329.76 139.72C329.68 139.48 329.56 139.48 329.52 139.72L329 141.36C328.92 141.56 328.76 141.56 328.68 141.36L327.64 139.04C327.52 138.8 327.44 138.84 327.4 139.08L327.28 141.44C327.24 141.68 327.12 141.72 326.96 141.52L325.8 140.12C325.64 139.96 325.52 140 325.52 140.24L326.16 162.04L323.76 163.56C323.56 163.68 323.56 163.76 323.8 163.76L325.8 163.68C326 163.68 326.12 163.84 326 164.04L325.24 165.28C325.12 165.48 325.2 165.64 325.44 165.6L326.6 165.52C326.84 165.48 326.92 165.64 326.8 165.84L326.08 166.96C325.96 167.16 326.08 167.32 326.28 167.32L327.68 167.24C327.92 167.24 328 167.4 327.88 167.6L327.32 168.56C327.2 168.76 327.28 168.88 327.52 168.84L329.08 168.48C329.32 168.44 329.44 168.6 329.36 168.8L328.96 169.88C328.88 170.12 328.96 170.16 329.16 170.04L341.6 161.84C341.8 161.72 341.76 161.6 341.52 161.6L340.44 161.56ZM398.76 169.96L392.44 167.76L398.8 162.56C398.96 162.4 398.96 162.32 398.72 162.36L396.32 162.84C396.08 162.88 396 162.76 396.12 162.56L397.2 160.88C397.32 160.68 397.24 160.56 397 160.64L395.72 161.04L394.96 160.52L395.84 159.08C395.84 159 396.28 159.64 396.28 159.64C396.4 159.8 396.52 159.76 396.52 159.56L396.56 142.48C396.56 142.24 396.44 142.2 396.32 142.4L395.36 143.56C395.2 143.76 395.04 143.72 394.92 143.52L394.76 143.12C394.8 143.08 395.68 142.64 395.68 142.64C395.88 142.52 395.88 142.32 395.68 142.24L394.96 141.84C394.76 141.72 394.72 141.52 394.92 141.36L395.76 140.64C395.96 140.48 395.88 140.36 395.68 140.36H383.84L383.76 137.6C383.76 137.36 383.68 137.36 383.52 137.52L382.84 138.6C382.72 138.8 382.52 138.76 382.4 138.56L381.8 137.28C381.72 137.08 381.52 137.08 381.36 137.28L380.56 138.44C380.4 138.6 380.24 138.6 380.16 138.36L379.76 137.24C379.68 137.04 379.52 137 379.4 137.2L378.6 138.52C378.48 138.72 378.28 138.68 378.2 138.48L377.6 137.28C377.52 137.08 377.36 137.08 377.28 137.32L376.76 138.64C376.68 138.84 376.52 138.88 376.36 138.68L375.48 137.28C375.36 137.08 375.24 137.08 375.24 137.32L375.32 140.36H363.88C363.64 140.36 363.6 140.48 363.76 140.64L364.56 141.28C364.68 141.36 364.68 141.48 364.64 141.56L364.6 141.48C364.52 141.28 364.36 141.28 364.28 141.48L364.04 141.92L363.4 142.24C363.32 142.28 363.28 142.36 363.24 142.4L362.52 141.4C362.4 141.2 362.28 141.24 362.28 141.48L362.2 168.72L359.6 169.2C359.36 169.24 359.36 169.32 359.6 169.4L361.64 169.96C361.88 170.04 361.92 170.2 361.72 170.32L360.12 171.6C359.92 171.72 359.96 171.88 360.2 171.96L361.92 172.44C362.12 172.48 362.16 172.64 361.96 172.8L360.28 173.96C360.08 174.12 360.12 174.24 360.36 174.28L362 174.52C362.2 174.56 362.28 174.72 362.08 174.84L360.52 176.32C360.36 176.44 360.4 176.56 360.64 176.52L380.92 173.08C381.16 173.04 381.16 172.92 380.96 172.84L379.36 172C379.12 171.92 379.12 171.68 379.28 171.56L379.84 171.08L396.16 176.6C396.36 176.68 396.44 176.6 396.28 176.44L395.04 175C394.88 174.8 394.96 174.64 395.2 174.64L397.36 174.48C397.6 174.44 397.64 174.32 397.44 174.16L395.8 172.72C395.6 172.56 395.68 172.44 395.88 172.44L398.24 172.36C398.48 172.32 398.48 172.24 398.28 172.08L396.44 170.84C396.24 170.72 396.28 170.56 396.52 170.52L398.76 170.16C398.96 170.12 399 170.04 398.76 169.96ZM380.12 169.84L379.72 169.92L379.08 169.56L379.24 169.08C379.28 168.96 379.36 168.88 379.48 168.84L380.2 169.48C380.36 169.64 380.32 169.8 380.12 169.84ZM388.04 146.6V147.84L370.8 147.72V146.56L388.04 146.6ZM370.76 153.48H388V154.84L370.76 154.72V153.48ZM384.24 164.84L382.8 161.32H389.44L384.92 165.12L384.24 164.84ZM370.76 161.32H374.76L376.8 166.12L370.76 167.2V161.32ZM432.32 169.04C432.56 169.04 432.56 168.96 432.36 168.8L413.96 156.6L432 144.28C432.2 144.16 432.16 144.04 431.96 144.04L430.2 143.96C429.96 143.96 429.88 143.84 430.08 143.68L432 141.72C432.16 141.56 432.12 141.48 431.92 141.56L429.44 142.36C429.2 142.44 429.16 142.36 429.28 142.16L430.6 140.64C430.72 140.44 430.68 140.36 430.44 140.4L428.04 140.88C427.84 140.92 427.76 140.84 427.92 140.68L429.72 138.8C429.88 138.6 429.8 138.52 429.6 138.6L427.24 139.32C427 139.36 426.92 139.28 427.04 139.08L427.88 137.76C428 137.56 427.96 137.48 427.76 137.64L404.6 153.48C404.4 153.6 404.44 153.68 404.68 153.64L405.88 153.52C406.12 153.48 406.2 153.6 406.08 153.8L405.24 155.08C405.12 155.28 405.2 155.4 405.44 155.36L406.92 155.16C407.16 155.12 407.24 155.24 407.12 155.48L406.56 156.56C406.48 156.68 406.48 156.8 406.56 156.84C406.56 156.88 406.56 156.92 406.6 156.96L407.64 158.16L407.4 158.56C407.36 158.64 407.4 158.68 407.4 158.72L405.68 158.32C405.44 158.28 405.4 158.36 405.56 158.52L407.12 160.08C407.28 160.24 407.24 160.36 407 160.36L405.16 160.44C404.92 160.44 404.92 160.56 405.12 160.68L428.24 176.16C428.44 176.28 428.52 176.24 428.4 176.04L427.24 174.16C427.12 173.96 427.2 173.84 427.44 173.88L429.6 174.44C429.84 174.52 429.88 174.4 429.72 174.24L428.16 172.48C428 172.28 428.08 172.2 428.32 172.24L430.32 172.68C430.56 172.72 430.64 172.6 430.48 172.44L429.2 170.88C429.04 170.68 429.12 170.6 429.36 170.64L431.2 170.96C431.44 171 431.48 170.88 431.32 170.72L429.8 169.24C429.64 169.08 429.68 168.96 429.92 168.96L432.32 169.04ZM475.12 147.48L476.76 146.68C476.96 146.56 476.96 146.4 476.76 146.32L475.2 145.8C475 145.72 475 145.56 475.2 145.48L476.68 144.84C476.88 144.76 476.88 144.64 476.64 144.64L474.96 144.36C474.72 144.32 474.68 144.16 474.88 144.08L476.68 143.04C476.92 142.92 476.88 142.8 476.64 142.8L463.48 142.88V138.76C463.48 138.52 463.36 138.52 463.28 138.72L462.56 140.16C462.44 140.36 462.32 140.36 462.24 140.12L461.72 138.16C461.64 137.92 461.52 137.92 461.4 138.12L460.56 139.88C460.48 140.08 460.32 140.08 460.24 139.84L459.68 138.04C459.6 137.84 459.48 137.84 459.36 138.04L458.6 139.8C458.52 140.04 458.4 140 458.32 139.8L457.48 137.52C457.4 137.32 457.28 137.32 457.24 137.52L456.64 139.44C456.6 139.68 456.4 139.68 456.28 139.52L455.64 138.6C455.52 138.4 455.4 138.44 455.4 138.68V142.92L440.4 142.96C440.16 142.96 440.16 143.04 440.36 143.16L442.48 144.08C442.68 144.2 442.68 144.28 442.44 144.32L440.44 144.68C440.2 144.68 440.16 144.8 440.4 144.88L442.2 145.68C442.4 145.8 442.4 145.88 442.16 145.92L440.08 146.36C439.84 146.4 439.84 146.48 440.08 146.56L442.64 147.36C442.88 147.4 442.88 147.52 442.64 147.56L440.36 148.16C440.12 148.24 440.12 148.32 440.32 148.4L442.6 149.12C442.84 149.2 442.84 149.32 442.64 149.44L440.88 150.24C440.68 150.32 440.68 150.4 440.92 150.4L455.44 150.36V152.28L447.24 152.32C447 152.32 446.96 152.4 447.16 152.52L448 153.04C448.2 153.16 448.16 153.32 447.96 153.4L446.8 153.8C446.6 153.88 446.56 154.04 446.8 154.12L447.96 154.76C448.2 154.84 448.2 155 447.96 155.08L446.4 155.72C446.2 155.8 446.2 155.92 446.4 156L448.2 156.6C448.4 156.68 448.4 156.8 448.2 156.92L446.8 157.52C446.6 157.6 446.6 157.72 446.84 157.76L448.68 158.2C448.92 158.24 448.92 158.36 448.72 158.48L448.2 158.68L447.96 158.6C447.76 158.52 447.72 158.56 447.88 158.76L447.92 158.8L447.2 159.12C447 159.2 447 159.28 447.24 159.28H448.4L449.16 160.04C449.32 160.2 449.28 160.32 449.04 160.28L446.72 159.8C446.48 159.76 446.44 159.88 446.6 160.04L448.16 161.56C448.36 161.72 448.28 161.84 448.08 161.8L446.08 161.56C445.84 161.52 445.8 161.6 446 161.76L448.04 163.56C448.2 163.68 448.16 163.8 447.92 163.76L445.44 163.36C445.2 163.32 445.16 163.4 445.36 163.56L447.36 164.92C447.56 165.08 447.52 165.16 447.28 165.16L445.04 165.12C444.84 165.12 444.8 165.16 445.04 165.24L457.56 170.24L456.36 173.32C456.28 173.52 456.36 173.6 456.52 173.44L458.12 172.2C458.28 172.04 458.4 172.12 458.36 172.32L457.84 174.52C457.8 174.76 457.88 174.8 458.08 174.64L459.88 172.84C460.04 172.68 460.16 172.76 460.12 172.96L459.8 175.12C459.76 175.36 459.88 175.44 460.04 175.28L461.68 173.84C461.84 173.68 461.96 173.76 461.92 173.96L461.68 175.68C461.64 175.88 461.72 175.96 461.88 175.76L462.96 174.64C463.08 174.48 463.28 174.52 463.32 174.76L463.64 176.2C463.72 176.4 463.8 176.44 463.88 176.2L471.12 157.84C471.2 157.64 471.12 157.6 470.96 157.76L469.76 158.8C469.6 158.96 469.44 158.88 469.44 158.64L469.52 156.4C469.52 156.16 469.4 156.12 469.28 156.32L468 158.2C467.84 158.4 467.76 158.36 467.76 158.12V157.84L468.24 157.6C468.44 157.52 468.48 157.32 468.28 157.2L467.72 156.92V156.48L468.92 155.92C469.16 155.84 469.16 155.68 468.92 155.6L466.84 154.96C466.6 154.92 466.6 154.8 466.84 154.72L469 154.12C469.24 154.04 469.24 153.92 469 153.88L467 153.28C466.76 153.2 466.76 153.08 467 153L468.72 152.4C468.96 152.32 468.96 152.28 468.72 152.28H463.44V150.36H476.28C476.52 150.36 476.52 150.28 476.32 150.2L474.96 149.6C474.72 149.52 474.76 149.36 474.96 149.32L476.68 148.72C476.88 148.64 476.88 148.52 476.68 148.44L475.12 147.8C474.88 147.72 474.88 147.56 475.12 147.48ZM449.76 159.28H455.44V159.96C455.44 160.2 455.56 160.2 455.68 160L456.16 159.28L456.68 159.24L457.36 161.2C457.44 161.44 457.6 161.44 457.68 161.24L458.64 159.24H458.96C458.96 159.28 459.48 160.8 459.48 160.8C459.56 161 459.72 161.04 459.84 160.84L460.68 159.24H461.08L461.28 160.8L460.28 163.32L449.76 159.28ZM514.36 151.96C514.36 151.72 514.28 151.72 514.2 151.92L513.52 153.4C513.4 153.64 513.28 153.6 513.2 153.4L512.6 151.4C512.52 151.2 512.4 151.2 512.28 151.4L511.52 153.2C511.4 153.44 511.28 153.4 511.2 153.2L510.56 151.6C510.48 151.36 510.32 151.36 510.2 151.56L509.52 152.76C509.4 153 509.24 152.96 509.12 152.76L508.36 150.92C508.28 150.72 508.16 150.72 508.08 150.96L507.6 152.92C507.52 153.12 507.36 153.16 507.2 152.96L506.56 152.08C506.4 151.88 506.28 151.92 506.28 152.16L506.32 153.36L500.64 153.4L506.84 147.24L509.48 147.2C509.72 147.2 509.72 147.12 509.52 147.04L507.88 146.28C507.84 146.24 508.28 145.8 508.28 145.8L509.92 145.16C510.12 145.08 510.12 144.96 509.92 144.88L508.12 144.28C507.92 144.2 507.92 144.08 508.16 144L510.12 143.44C510.36 143.36 510.36 143.24 510.16 143.12L508.56 142.32C508.32 142.2 508.32 142.04 508.56 141.92L509.88 141.28C510.12 141.2 510.12 141.04 509.88 140.96L508.48 140.44C508.28 140.36 508.28 140.2 508.48 140.08L509.8 139.28C510 139.2 510 139.08 509.76 139.08L483.88 139.24C483.64 139.24 483.64 139.32 483.84 139.4L485.44 140.2C485.68 140.28 485.64 140.44 485.44 140.52L483.44 141.24C483.2 141.32 483.2 141.44 483.44 141.52L485.64 142.2C485.88 142.24 485.88 142.4 485.64 142.48L483.6 143.2C483.4 143.28 483.4 143.4 483.6 143.48L485.72 144.2C485.92 144.28 485.92 144.4 485.72 144.48L483.8 145.12C483.6 145.16 483.6 145.28 483.84 145.36L485.64 145.84C485.84 145.88 485.88 146.04 485.68 146.16L484.16 147.12C483.96 147.24 484 147.36 484.24 147.36L495.84 147.28L478.84 164.08C478.68 164.24 478.72 164.32 478.92 164.24L480.68 163.6C480.92 163.52 481 163.64 480.92 163.84L480.24 165.48C480.16 165.68 480.24 165.8 480.48 165.68L482.04 165.04C482.28 164.96 482.36 165.04 482.24 165.24L481.36 166.8C481.24 167 481.36 167.12 481.56 167.08L483.24 166.56C483.48 166.48 483.56 166.6 483.48 166.84L482.84 168.08C482.76 168.28 482.84 168.36 483.04 168.28L485.04 167.28C485.24 167.16 485.32 167.24 485.28 167.48L484.8 168.88C484.72 169.08 484.8 169.16 484.96 168.96L493.04 160.92H496.76L490.92 169.32C490.76 169.52 490.84 169.6 491.04 169.48L492.68 168.56C492.92 168.48 493.04 168.56 493 168.8L492.96 168.96L492.52 169.08C492.28 169.12 492.28 169.28 492.48 169.4L492.84 169.64L492.72 170.16C492.68 170.4 492.8 170.48 493 170.36L493.52 170.04L493.6 170.12C493.8 170.24 493.8 170.44 493.56 170.52L492.56 170.88C492.36 170.96 492.32 171.12 492.52 171.24L493.52 171.88C493.72 172 493.72 172.2 493.52 172.28L492.48 172.76C492.28 172.88 492.28 173.04 492.52 173.12L493.64 173.6C493.88 173.72 493.88 173.88 493.68 174L492.84 174.56C492.64 174.68 492.68 174.76 492.92 174.8L510.96 175C511.2 175 511.24 174.88 511.04 174.76L510.92 174.68C510.96 174.64 511.48 173.64 511.48 173.64C511.64 173.6 511.72 173.52 511.68 173.4C511.76 173.32 511.88 173.32 511.96 173.48L512.6 174.72C512.72 174.92 512.84 174.92 512.92 174.68L513.68 172.52C513.76 172.32 513.92 172.28 514.04 172.48L514.64 173.64C514.76 173.84 514.84 173.84 514.84 173.6L514.36 151.96ZM506.48 160.88L506.6 167.68L500.8 167.6L505.24 160.88H506.48Z" fill="#FF6347"/>
</svg>
